<svg width="35" height="32" viewBox="0 0 35 32" fill="none" xmlns="http://www.w3.org/2000/svg">
<path d="M20.0156 5.20035C19.821 5.69947 19.7283 6.23221 19.7427 6.76746C19.7131 8.25087 19.5842 8.94193 19.2 9.62251C18.4713 10.9132 16.8169 11.7829 15.5607 12.5742C15.0956 12.8228 14.6859 13.1629 14.3565 13.5739C14.0271 13.9848 13.7847 14.4581 13.6441 14.965C13.5035 15.472 13.4676 16.0021 13.5385 16.5233C13.6094 17.0445 13.7857 17.546 14.0567 17.9973C14.4187 18.6002 14.9397 19.0945 15.5607 19.4234C15.9167 19.6695 16.2587 19.9346 16.5847 20.2186L17.4017 21.0158C18.8988 22.5841 19.7383 23.0686 19.7487 25.2331C19.7333 25.7685 19.8256 26.3015 20.0201 26.8008C20.2147 27.3 20.5077 27.7554 20.8817 28.14C21.2541 28.5242 21.7003 28.8296 22.1938 29.0382C22.6872 29.2467 23.2177 29.354 23.7537 29.3538C24.2894 29.353 24.8195 29.2452 25.3126 29.0367C25.8058 28.8282 26.2519 28.5233 26.6247 28.14C26.9981 27.7547 27.2906 27.2991 27.4852 26.7998C27.6797 26.3005 27.7724 25.7675 27.7577 25.2321C27.749 24.5371 27.5569 23.8566 27.2007 23.259C26.8458 22.6624 26.339 22.1698 25.7317 21.831C23.2727 20.2804 21.5617 18.9101 21.5617 15.9943C21.5678 13.8486 22.3913 13.3796 23.8657 11.8159L25.7257 10.1696C26.3327 9.83178 26.8397 9.3395 27.1957 8.74158C27.5527 8.14466 27.7437 7.46303 27.7527 6.76746C27.768 6.23211 27.6757 5.69912 27.4811 5.19989C27.2865 4.70067 26.9936 4.24529 26.6197 3.86059C26.2473 3.4765 25.8011 3.17109 25.3076 2.96256C24.8142 2.75403 24.2837 2.64664 23.7477 2.64682C23.2119 2.64743 22.6816 2.75518 22.1883 2.96366C21.695 3.17215 21.2487 3.47714 20.8757 3.86059C20.5025 4.24578 20.2101 4.70124 20.0156 5.20035Z" fill="#4338CA"/>
<path d="M1.67572 18.2345C1.23588 17.575 1.0009 16.8001 1.00073 16.0071C1.0014 14.9443 1.42377 13.9249 2.17572 13.1711C2.54699 12.7992 2.98824 12.5039 3.4742 12.3021C3.96015 12.1003 4.48128 11.996 5.00773 11.9952C5.80059 11.9952 6.5755 12.2304 7.23373 12.6709C7.8934 13.1123 8.40702 13.7385 8.70973 14.4706C9.01268 15.2037 9.09182 16.0095 8.93724 16.7872C8.78266 17.5649 8.40123 18.2798 7.84073 18.8424C7.28205 19.4036 6.56821 19.786 5.79036 19.941C5.01251 20.096 4.20596 20.0164 3.47373 19.7124C2.74079 19.408 2.11501 18.8936 1.67572 18.2345Z" fill="#4338CA"/>
<path d="M32.2197 19.3416C31.5607 19.7821 30.7867 20.0173 29.9937 20.0173C29.4674 20.0162 28.9464 19.9117 28.4607 19.7097C27.9749 19.5078 27.5338 19.2124 27.1627 18.8404C26.5071 18.183 26.0993 17.3203 26.0082 16.3979C25.9171 15.4756 26.1483 14.5502 26.6627 13.778C27.1021 13.1189 27.7278 12.6046 28.4607 12.3002C29.1931 11.9979 29.9991 11.9192 30.7764 12.074C31.5537 12.2289 32.2673 12.6104 32.8267 13.1701C33.387 13.7327 33.7683 14.4474 33.9229 15.2249C34.0775 16.0024 33.9985 16.808 33.6957 17.5409C33.3931 18.2733 32.8795 18.9 32.2197 19.3416Z" fill="#4338CA"/>
<path d="M16.1834 24.6099C16.6244 25.2696 16.8594 26.0459 16.8594 26.8391C16.8587 27.9017 16.4363 28.9209 15.6844 29.6742C15.0306 30.3297 14.1683 30.738 13.2454 30.8291C12.3225 30.9202 11.3965 30.6884 10.6264 30.1735C9.9667 29.7321 9.45308 29.1059 9.15037 28.3738C8.84764 27.6408 8.76861 26.8352 8.92319 26.0577C9.07777 25.2803 9.45908 24.5655 10.0194 24.003C10.578 23.442 11.2916 23.0597 12.0693 22.9047C12.8469 22.7497 13.6533 22.8292 14.3854 23.133C15.1182 23.4371 15.7439 23.9511 16.1834 24.6099Z" fill="#4338CA"/>
<path d="M15.0788 8.50852C14.4198 8.94898 13.6448 9.18416 12.8528 9.18416L12.8528 9.18616C12.3263 9.18552 11.8052 9.08132 11.3192 8.87953C10.8332 8.67775 10.392 8.38234 10.0208 8.01025C9.36488 7.35266 8.95688 6.48956 8.86578 5.56681C8.77468 4.64407 9.00606 3.71827 9.52082 2.9459C9.96023 2.28623 10.5864 1.77151 11.3198 1.46705C12.0519 1.16326 12.8583 1.08378 13.6359 1.23873C14.4136 1.39368 15.1272 1.77605 15.6858 2.33702C16.2463 2.89963 16.6278 3.61455 16.7823 4.39223C16.9369 5.1699 16.8578 5.97574 16.5548 6.70879C16.2521 7.44085 15.7384 8.06711 15.0788 8.50852Z" fill="#4338CA"/>
<path d="M16.784 26.0612L9.61598 24.4668C9.61598 24.4668 12 21.1988 12 15.9995C12 10.8002 9.59998 7.53289 9.59998 7.53289L16.656 6.43359C16.656 6.43359 16 11.4935 16 15.9995C16 20.5056 16.784 26.0612 16.784 26.0612Z" fill="#4338CA"/>
</svg>
