<svg width="1600" height="1000" viewBox="0 0 1600 1000" fill="none" xmlns="http://www.w3.org/2000/svg">
<rect width="1600" height="1000" fill="url(#paint0_linear_518_2)"/>
<path d="M1304.17 941.735C1296.18 939.501 1288.53 936.431 1281.24 932.525C1273.96 928.522 1267.47 924.269 1261.74 919.766C1256.14 915.192 1251.61 910.866 1248.15 906.787C1248.88 904.086 1250.14 901.326 1251.92 898.505C1253.8 895.711 1255.92 893.242 1258.26 891.097C1260.73 888.881 1263.12 887.422 1265.43 886.721C1270.96 892.934 1277.63 898.894 1285.43 904.6C1293.35 910.236 1301.45 914.211 1309.73 916.526C1317.9 918.91 1325.04 919.09 1331.15 917.063C1337.26 915.037 1341.14 910.726 1342.78 904.13C1344.12 898.8 1343.63 893.632 1341.31 888.627C1339.01 883.524 1334.54 878.697 1327.91 874.146L1302.23 856.235C1292.71 849.53 1285.62 841.846 1280.97 833.181C1276.32 824.517 1275.23 814.877 1277.7 804.26C1279.83 795.105 1284 787.556 1290.21 781.614C1296.51 775.698 1304.23 771.838 1313.36 770.035C1322.53 768.134 1332.5 768.691 1343.29 771.705C1354.27 774.773 1364.02 778.9 1372.56 784.086C1381.12 789.175 1388.43 794.587 1394.48 800.323C1393.53 804.414 1391.53 808.368 1388.49 812.186C1385.54 816.03 1382.2 818.934 1378.46 820.898C1372.67 815.34 1366.46 810.543 1359.8 806.506C1353.25 802.496 1346.51 799.522 1339.57 797.585C1331.67 795.378 1324.96 795.369 1319.42 797.556C1313.91 799.647 1310.46 803.662 1309.08 809.604C1307.76 815.253 1308.6 820.049 1311.58 823.994C1314.67 827.868 1318.91 831.697 1324.29 835.481L1348.45 852.657C1358.76 859.896 1366.34 868.34 1371.17 877.988C1376.1 887.664 1377.11 898.735 1374.21 911.202C1372.1 920.259 1367.8 927.719 1361.31 933.581C1354.84 939.346 1346.71 942.987 1336.92 944.504C1327.13 946.022 1316.21 945.098 1304.17 941.735ZM1296.32 967.547C1291.41 966.175 1287.5 964.669 1284.6 963.028L1292.39 929.573L1316.22 936.233L1308.44 969.689C1305.37 969.661 1301.33 968.947 1296.32 967.547ZM1330.71 778.149L1338.7 743.816C1340.43 743.884 1342.37 744.117 1344.54 744.514C1346.8 744.938 1348.94 745.433 1350.96 745.998C1352.98 746.563 1355.03 747.239 1357.11 748.026C1359.28 748.84 1361.13 749.67 1362.68 750.517L1354.69 784.849L1330.71 778.149Z" fill="white" fill-opacity="0.8"/>
<path d="M1474.67 838.026C1469.24 839.076 1463.81 839.515 1458.38 839.343C1452.94 839.104 1447.92 838.481 1443.3 837.473C1438.74 836.387 1434.89 835.128 1431.76 833.698C1431.53 831.842 1431.6 829.792 1431.98 827.546C1432.43 825.288 1433.1 823.157 1433.99 821.152C1434.94 819.069 1436.03 817.466 1437.27 816.345C1442.19 818.447 1447.75 820.053 1453.94 821.165C1460.18 822.198 1466.11 822.171 1471.74 821.083C1477.31 820.073 1481.71 818.036 1484.93 814.97C1488.15 811.905 1489.43 808.128 1488.77 803.64C1488.26 800.007 1486.66 797.024 1483.99 794.69C1481.31 792.29 1477.38 790.708 1472.19 789.946L1452.05 786.815C1444.57 785.615 1438.32 783.089 1433.32 779.239C1428.31 775.388 1425.23 769.875 1424.07 762.701C1423.08 756.514 1423.72 750.688 1426.02 745.223C1428.37 739.745 1432.11 735.086 1437.23 731.246C1442.34 727.34 1448.56 724.679 1455.89 723.262C1463.35 721.82 1470.33 721.386 1476.84 721.961C1483.33 722.471 1489.14 723.553 1494.27 725.209C1494.71 727.974 1494.49 730.97 1493.59 734.197C1492.76 737.412 1491.45 740.176 1489.66 742.49C1484.74 740.862 1479.75 739.825 1474.68 739.379C1469.68 738.92 1464.82 739.146 1460.11 740.057C1454.74 741.095 1450.65 743.108 1447.82 746.098C1444.99 749.021 1443.89 752.491 1444.54 756.506C1445.15 760.323 1446.86 762.979 1449.67 764.473C1452.53 765.888 1456.07 766.934 1460.3 767.61L1479.33 770.752C1487.43 772.036 1494.17 774.874 1499.53 779.267C1504.96 783.646 1508.35 790.049 1509.71 798.474C1510.69 804.595 1509.94 810.407 1507.45 815.91C1504.96 821.348 1500.91 825.998 1495.33 829.86C1489.74 833.723 1482.85 836.445 1474.67 838.026ZM1476.35 856.025C1473.02 856.67 1470.26 856.932 1468.08 856.81L1464.44 834.202L1480.64 831.07L1484.28 853.679C1482.4 854.585 1479.76 855.367 1476.35 856.025ZM1449.84 730.947L1446.1 707.746C1447.17 707.268 1448.42 706.823 1449.84 706.413C1451.32 705.991 1452.75 705.647 1454.12 705.381C1455.5 705.115 1456.92 704.909 1458.38 704.762C1459.9 704.603 1461.24 704.547 1462.4 704.596L1466.14 727.797L1449.84 730.947Z" fill="white" fill-opacity="0.8"/>
<path d="M1155.61 786.542C1136.76 790.999 1117.85 793.316 1098.87 793.491C1079.85 793.438 1062.21 791.978 1045.96 789.113C1029.89 785.965 1016.3 782.111 1005.19 777.553C1004.15 771.089 1004.16 763.899 1005.21 755.982C1006.49 748.012 1008.57 740.453 1011.44 733.305C1014.49 725.874 1018.11 720.107 1022.29 716.003C1039.76 722.653 1059.37 727.48 1081.11 730.484C1103.03 733.205 1123.76 732.257 1143.29 727.638C1162.63 723.302 1177.74 715.536 1188.6 704.341C1199.47 693.146 1203.48 679.737 1200.64 664.116C1198.39 651.471 1192.45 641.254 1182.84 633.465C1173.18 625.447 1159.25 620.476 1141.05 618.551L1070.3 610.485C1044.02 607.357 1021.9 599.411 1003.93 586.648C985.972 573.884 974.533 555.026 969.617 530.072C965.377 508.552 966.925 488.06 974.259 468.595C981.821 449.076 994.305 432.226 1011.71 418.046C1029.07 403.637 1050.47 393.425 1075.9 387.41C1101.79 381.288 1126.12 378.766 1148.91 379.845C1171.66 380.696 1192.08 383.652 1210.19 388.713C1212.09 398.328 1211.66 408.851 1208.93 420.281C1206.41 431.657 1202.18 441.524 1196.22 449.881C1178.84 444.887 1161.27 441.974 1143.52 441.14C1126 440.253 1109.06 441.743 1092.71 445.61C1074.09 450.014 1060.03 457.652 1050.53 468.525C1040.98 479.17 1037.59 491.474 1040.34 505.439C1042.95 518.717 1049.25 527.77 1059.23 532.597C1069.4 537.141 1081.9 540.294 1096.74 542.054L1163.61 550.32C1192.07 553.652 1215.94 562.622 1235.21 577.231C1254.72 591.786 1267.35 613.716 1273.13 643.019C1277.32 664.31 1275.41 684.768 1267.4 704.395C1259.33 723.792 1245.78 740.654 1226.74 754.981C1207.7 769.308 1183.99 779.828 1155.61 786.542ZM1163.7 849.32C1152.12 852.059 1142.51 853.372 1134.89 853.259L1119.39 774.621L1175.59 761.329L1191.08 839.967C1184.63 843.41 1175.5 846.527 1163.7 849.32ZM1055.71 415.188L1039.81 334.489C1043.49 332.661 1047.78 330.926 1052.69 329.287C1057.82 327.594 1062.77 326.184 1067.54 325.056C1072.31 323.928 1077.23 323.002 1082.32 322.279C1087.63 321.501 1092.31 321.114 1096.35 321.117L1112.25 401.815L1055.71 415.188Z" fill="white" fill-opacity="0.8"/>
<defs>
<linearGradient id="paint0_linear_518_2" x1="0" y1="0" x2="1600" y2="1000" gradientUnits="userSpaceOnUse">
<stop stop-color="#C647DB"/>
<stop offset="1" stop-color="#F5F866"/>
</linearGradient>
</defs>
</svg>
