<svg width="148" height="32" viewBox="0 0 148 32" fill="none" xmlns="http://www.w3.org/2000/svg">
<g clip-path="url(#clip0_834_9131)">
<path d="M7.1302 24.4498C5.86717 24.4498 4.58122 24.2968 3.27233 23.9907C1.96339 23.6847 0.87261 23.2823 0 22.7835L0.172248 18.1588H0.516681L1.58447 20.3692C1.90597 21.0039 2.2504 21.565 2.61783 22.0524C2.98525 22.5399 3.49044 22.9196 4.13345 23.1916C4.59271 23.4183 5.03476 23.5713 5.45961 23.6507C5.88445 23.73 6.36092 23.7697 6.8891 23.7697C8.28989 23.7697 9.39787 23.3956 10.2131 22.6475C11.0283 21.8994 11.4359 20.936 11.4359 19.7571C11.4359 18.6462 11.1603 17.7791 10.6092 17.1557C10.058 16.5322 9.17393 15.9259 7.95689 15.3364L6.5446 14.7243C4.56978 13.8628 3.02546 12.871 1.91169 11.7489C0.797981 10.6267 0.241097 9.13615 0.241097 7.27717C0.241097 5.93968 0.591309 4.78347 1.29167 3.80865C1.9921 2.83382 2.96804 2.08573 4.21957 1.5643C5.4711 1.04294 6.93502 0.782227 8.61133 0.782227C9.82843 0.782227 10.9823 0.940924 12.0731 1.25826C13.1639 1.57565 14.1111 2.00641 14.9148 2.55047L14.7082 6.63109H14.3637L12.9514 4.08071C12.5611 3.28728 12.1707 2.72616 11.7803 2.39748C11.39 2.06874 10.9421 1.83637 10.437 1.70037C10.1384 1.60964 9.86286 1.54731 9.61026 1.51333C9.35767 1.47934 9.03617 1.46229 8.64581 1.46229C7.47463 1.46229 6.48719 1.79668 5.68349 2.46545C4.87979 3.13423 4.47788 4.03537 4.47788 5.16889C4.47788 6.32505 4.78789 7.24883 5.40791 7.9403C6.02792 8.63171 6.93502 9.24951 8.12913 9.79357L9.7136 10.4737C11.9181 11.4258 13.5026 12.4403 14.4671 13.5172C15.4315 14.5939 15.9138 15.9825 15.9138 17.6828C15.9138 19.6777 15.1502 21.3043 13.6232 22.5625C12.096 23.8207 9.93177 24.4498 7.1302 24.4498Z" fill="#0B1D31"/>
<path d="M22.043 24.3475C20.5733 24.3475 19.4309 23.9848 18.6157 23.2593C17.8005 22.5339 17.3928 21.3777 17.3928 19.7908V8.16102H15.0161V7.82099L15.8428 7.68493C16.5547 7.52623 17.169 7.29956 17.6856 7.00487C18.2023 6.71011 18.7133 6.31339 19.2185 5.81466L22.043 2.72021H22.3875L22.2841 7.4809H26.142V8.16102H22.2496V20.4029C22.2496 21.1963 22.4276 21.7971 22.7835 22.2052C23.1395 22.6132 23.593 22.8173 24.1442 22.8173C24.6264 22.8173 25.0512 22.6983 25.4186 22.4602C25.7861 22.2222 26.1535 21.8991 26.5209 21.4911L26.8653 21.8311C26.4061 22.6019 25.7746 23.214 24.9709 23.6674C24.1671 24.1208 23.1912 24.3475 22.043 24.3475Z" fill="#0B1D31"/>
<path d="M34.6599 24.3479C32.9146 24.3479 31.3991 23.9908 30.1131 23.2767C28.8272 22.5626 27.8339 21.5481 27.1336 20.2332C26.4332 18.9184 26.083 17.3768 26.083 15.6085C26.083 13.8403 26.4561 12.31 27.2024 11.0178C27.9488 9.72561 28.9706 8.72815 30.2681 8.02539C31.5655 7.32257 33.0295 6.97119 34.6599 6.97119C36.2903 6.97119 37.7485 7.31693 39.0345 8.0084C40.3204 8.69981 41.3366 9.69163 42.0828 10.9838C42.8292 12.276 43.2023 13.8176 43.2023 15.6085C43.2023 17.3995 42.8522 18.9467 42.1517 20.2503C41.4514 21.5538 40.4639 22.5626 39.1894 23.2767C37.915 23.9908 36.4051 24.3479 34.6599 24.3479ZM34.6599 23.6678C35.4636 23.6678 36.1066 23.441 36.5888 22.9876C37.0711 22.5342 37.4213 21.7295 37.6394 20.5733C37.8576 19.4171 37.9667 17.7848 37.9667 15.6766C37.9667 13.5455 37.8576 11.902 37.6394 10.7458C37.4213 9.58961 37.0711 8.78483 36.5888 8.33144C36.1066 7.87804 35.4636 7.65132 34.6599 7.65132C33.8561 7.65132 33.2074 7.87804 32.7137 8.33144C32.22 8.78483 31.8641 9.58961 31.6459 10.7458C31.4278 11.902 31.3187 13.5455 31.3187 15.6766C31.3187 17.7848 31.4278 19.4171 31.6459 20.5733C31.8641 21.7295 32.22 22.5342 32.7137 22.9876C33.2074 23.441 33.8561 23.6678 34.6599 23.6678Z" fill="#0B1D31"/>
<path d="M54.502 11.9242C55.8773 11.9242 56.9922 10.8235 56.9922 9.46574C56.9922 8.108 55.8773 7.00732 54.502 7.00732C53.1266 7.00732 52.0117 8.108 52.0117 9.46574C52.0117 10.8235 53.1266 11.9242 54.502 11.9242Z" fill="white"/>
<path d="M57.6198 11.1153L60.819 19.3148L64.2291 10.0313C64.4128 9.50998 64.4817 9.07358 64.4357 8.7222C64.3898 8.37075 64.1028 8.1271 63.5746 7.99103L62.8513 7.82105V7.48096H67.6392V7.82105L66.8814 8.05907C66.3532 8.21776 65.9858 8.44443 65.7791 8.73919C65.5724 9.03389 65.3773 9.44195 65.1936 9.96338L59.6478 24.8916C58.7522 27.272 57.8567 29.0516 56.9611 30.2304C56.0655 31.4093 54.9059 31.9987 53.4821 31.9987C52.5636 31.9987 51.8345 31.772 51.2948 31.3186C50.7552 30.8652 50.4854 30.2871 50.4854 29.5843C50.4854 28.9495 50.715 28.4395 51.1743 28.0541C51.6335 27.6687 52.1502 27.476 52.7243 27.476C53.2984 27.476 53.7807 27.5951 54.171 27.8331C54.5614 28.0711 54.9059 28.4168 55.2044 28.8702L55.4455 29.1423C55.9507 29.8224 56.4559 29.8111 56.9611 29.1082C57.1678 28.7682 57.4032 28.3205 57.6672 27.765C57.9313 27.2096 58.2356 26.4672 58.5801 25.5377L53.138 12.688C53.5577 12.8616 54.0186 12.9575 54.502 12.9575C55.85 12.9575 57.0229 12.2115 57.6198 11.1153Z" fill="#0B1D31"/>
<path d="M50.9902 9.88569C50.7749 9.92606 50.5724 10.0653 50.383 10.3034C50.1533 10.5074 49.9638 10.7511 49.8146 11.0345C49.6653 11.3179 49.5218 11.6409 49.384 12.0036V21.4911C49.384 22.3979 49.7859 22.9646 50.5896 23.1913L51.6918 23.4973V23.8374H42.7705V23.4973L43.2872 23.3613C43.7465 23.2253 44.0622 23.0213 44.2344 22.7493C44.4067 22.4772 44.4928 22.1258 44.4928 21.6951V11.0515C44.4928 10.5527 44.4067 10.1844 44.2344 9.94634C44.0622 9.70826 43.7465 9.54392 43.2872 9.45325L42.7705 9.31719V8.97716L48.6951 7.00488L49.0396 7.34491L49.3496 10.2694V10.5414C49.671 9.90665 50.0902 9.3229 50.6068 8.79012C50.7917 8.59955 50.9838 8.42132 51.1833 8.25542C51.0421 8.63248 50.9648 9.04017 50.9648 9.46553C50.9648 9.60774 50.9735 9.74801 50.9902 9.88569Z" fill="#0B1D31"/>
<path d="M75.7928 24.4498C74.5298 24.4498 73.2438 24.2968 71.9349 23.9907C70.626 23.6847 69.5352 23.2823 68.6626 22.7835L68.8348 18.1588H69.1793L70.2471 20.3692C70.5686 21.0039 70.913 21.565 71.2804 22.0524C71.6478 22.5399 72.153 22.9196 72.796 23.1916C73.2553 23.4183 73.6974 23.5713 74.1221 23.6507C74.547 23.73 75.0235 23.7697 75.5516 23.7697C76.9524 23.7697 78.0604 23.3956 78.8756 22.6475C79.6909 21.8994 80.0984 20.936 80.0984 19.7571C80.0984 18.6462 79.8229 17.7791 79.2717 17.1557C78.7206 16.5322 77.8365 15.9259 76.6195 15.3364L75.2072 14.7243C73.2323 13.8628 71.6881 12.871 70.5743 11.7489C69.4606 10.6267 68.9037 9.13615 68.9037 7.27717C68.9037 5.93968 69.2539 4.78347 69.9543 3.80865C70.6547 2.83382 71.6306 2.08573 72.8822 1.5643C74.1336 1.04294 75.5976 0.782227 77.2739 0.782227C78.491 0.782227 79.6449 0.940924 80.7357 1.25826C81.8264 1.57565 82.7737 2.00641 83.5774 2.55047L83.3708 6.63109H83.0263L81.614 4.08071C81.2237 3.28728 80.8333 2.72616 80.4429 2.39748C80.0525 2.06874 79.6047 1.83637 79.0996 1.70037C78.801 1.60964 78.5255 1.54731 78.2729 1.51333C78.0203 1.47934 77.6988 1.46229 77.3083 1.46229C76.1372 1.46229 75.1498 1.79668 74.3461 2.46545C73.5423 3.13423 73.1405 4.03537 73.1405 5.16889C73.1405 6.32505 73.4505 7.24883 74.0705 7.9403C74.6905 8.63171 75.5976 9.24951 76.7917 9.79357L78.3762 10.4737C80.5807 11.4258 82.1651 12.4403 83.1297 13.5172C84.0941 14.5939 84.5764 15.9825 84.5764 17.6828C84.5764 19.6777 83.8128 21.3043 82.2857 22.5625C80.7586 23.8207 78.5943 24.4498 75.7928 24.4498Z" fill="#0B1D31"/>
<path d="M83.7515 23.8378V23.4977L84.2337 23.3617C84.67 23.2483 84.9743 23.0557 85.1465 22.7836C85.3187 22.5116 85.4163 22.1489 85.4393 21.6955V11.0518C85.4393 10.5531 85.3589 10.1847 85.1982 9.9467C85.0374 9.70862 84.7274 9.54428 84.2681 9.45361L83.7515 9.31755V8.97752L89.6416 7.00524L89.9861 7.34527L90.2616 9.65764C91.0194 8.90949 91.8863 8.27476 92.8623 7.75333C93.8382 7.2319 94.8544 6.97119 95.9107 6.97119C97.0129 6.97119 97.897 7.19228 98.563 7.63432C99.2289 8.07637 99.7341 8.76214 100.079 9.69163C100.974 8.8528 101.944 8.18973 102.989 7.70235C104.034 7.21491 105.05 6.97119 106.038 6.97119C107.668 6.97119 108.868 7.35662 109.637 8.12741C110.406 8.8982 110.791 10.111 110.791 11.7659V21.7295C110.791 22.6136 111.204 23.169 112.031 23.3957L112.41 23.4977V23.8378H104.453V23.4977L104.798 23.3957C105.234 23.2597 105.538 23.0557 105.71 22.7836C105.883 22.5116 105.969 22.1489 105.969 21.6955V11.2899C105.969 10.3377 105.796 9.68598 105.452 9.3346C105.108 8.98316 104.556 8.80747 103.799 8.80747C103.202 8.80747 102.622 8.93783 102.059 9.19854C101.497 9.45925 100.905 9.85032 100.285 10.3718C100.4 10.7345 100.475 11.1312 100.509 11.5619C100.544 11.9926 100.561 12.446 100.561 12.9221V21.7295C100.584 22.6136 100.997 23.169 101.801 23.3957L102.111 23.4977V23.8378H94.1195V23.4977L94.6018 23.3617C95.0381 23.2257 95.3423 23.0273 95.5146 22.7666C95.6868 22.5059 95.7729 22.1489 95.7729 21.6955V11.3239C95.7729 10.4171 95.6064 9.77094 95.2735 9.38558C94.9405 9.00021 94.3721 8.80747 93.5684 8.80747C93.0402 8.80747 92.512 8.93783 91.9839 9.19854C91.4558 9.45925 90.9047 9.83897 90.3306 10.3377V21.7295C90.3306 22.6136 90.7324 23.169 91.5361 23.3957L91.8461 23.4977V23.8378H83.7515Z" fill="#0B1D31"/>
<path d="M127.43 24.3475C125.96 24.3475 124.818 23.9848 124.003 23.2593C123.188 22.5339 122.78 21.3777 122.78 19.7908V8.16102H120.403V7.82099L121.23 7.68493C121.942 7.52623 122.556 7.29956 123.073 7.00487C123.59 6.71011 124.1 6.31339 124.606 5.81466L127.43 2.72021H127.775L127.671 7.4809H131.529V8.16102H127.637V20.4029C127.637 21.1963 127.815 21.7971 128.171 22.2052C128.527 22.6132 128.98 22.8173 129.531 22.8173C130.014 22.8173 130.438 22.6983 130.806 22.4602C131.173 22.2222 131.541 21.8991 131.908 21.4911L132.253 21.8311C131.793 22.6019 131.162 23.214 130.358 23.6674C129.554 24.1208 128.578 24.3475 127.43 24.3475Z" fill="#0B1D31"/>
<path d="M131.732 21.8313C131.827 21.6717 131.94 21.4798 132.071 21.0873C132.445 19.9591 132.186 3.90164 132.186 3.90164C132.186 2.92918 131.844 2.67144 131.571 2.40862C131.37 2.2155 130.407 2.05166 129.948 1.93829L129.431 1.80229V1.4622L135.494 0L136.045 0.306047L135.907 5.10078V9.35144C136.711 8.69402 137.578 8.1329 138.508 7.66816C139.438 7.20341 140.465 6.97104 141.59 6.97104C143.083 6.97104 144.271 7.39045 145.156 8.22927C146.04 9.06803 146.482 10.3602 146.482 12.1059V21.6953C146.482 22.1487 146.574 22.5114 146.757 22.7834C146.941 23.0555 147.262 23.2595 147.722 23.3955L147.997 23.4976V23.8376H139.937V23.4976L140.35 23.3955C141.177 23.1235 141.59 22.5454 141.59 21.6613V10.9837C141.59 10.0768 141.435 9.45346 141.125 9.11336C140.815 8.77333 140.27 8.60329 139.489 8.60329C138.984 8.60329 138.433 8.69966 137.836 8.89234C137.239 9.08502 136.63 9.41941 136.01 9.8955V21.7293C136.01 22.6135 136.424 23.1802 137.25 23.4296L137.526 23.4976V23.8376C137.526 23.8376 135.331 23.8187 134.049 23.8187C132.946 23.8187 129.628 24.1036 128.75 24.204C129.462 23.1456 131.273 22.6021 131.732 21.8313Z" fill="#0B1D31"/>
<path d="M115.861 9.54574C117.237 9.54574 118.352 8.44507 118.352 7.08733C118.352 5.72958 117.237 4.62891 115.861 4.62891C114.486 4.62891 113.371 5.72958 113.371 7.08733C113.371 8.44507 114.486 9.54574 115.861 9.54574Z" fill="white"/>
<path d="M118.996 8.70557L118.922 12.1736V21.6951C118.922 22.1485 119.008 22.5112 119.18 22.7832C119.353 23.0553 119.657 23.2593 120.093 23.3953L120.438 23.4973V23.8374H112.377V23.4973L112.86 23.3613C113.319 23.2253 113.635 23.0213 113.807 22.7492C113.979 22.4772 114.065 22.1144 114.065 21.661V11.0174C114.065 10.5413 113.979 10.1843 113.807 9.94631C113.798 9.93354 113.788 9.92095 113.778 9.90867C114.362 10.3303 115.083 10.5793 115.862 10.5793C117.222 10.5793 118.405 9.81893 118.996 8.70557Z" fill="#0B1D31"/>
</g>
<defs>
<clipPath id="clip0_834_9131">
<rect width="148" height="32" fill="white"/>
</clipPath>
</defs>
</svg>
